<?xml version="1.0" standalone="no"?>
<!DOCTYPE svg PUBLIC "-//W3C//DTD SVG 20010904//EN"
 "http://www.w3.org/TR/2001/REC-SVG-20010904/DTD/svg10.dtd">
<svg version="1.0" xmlns="http://www.w3.org/2000/svg"
 width="1300.000000pt" height="1035.000000pt" viewBox="0 0 1300.000000 1035.000000"
 preserveAspectRatio="xMidYMid meet">

<g transform="translate(0.000000,1035.000000) scale(0.100000,-0.100000)"
fill="#000000" stroke="none">
<path d="M10785 8604 c-126 -16 -172 -35 -470 -191 -336 -176 -485 -277 -485
-327 0 -70 142 -205 255 -243 l40 -13 -61 4 c-33 2 -75 11 -92 20 -40 21 -104
87 -144 149 -34 52 -46 57 -74 26 -45 -52 -611 -513 -1224 -1000 -162 -128
-354 -281 -427 -339 -72 -58 -192 -153 -265 -211 -73 -58 -187 -148 -253 -200
-66 -53 -216 -171 -332 -263 -152 -119 -213 -173 -213 -187 0 -19 2 -19 33 6
17 14 70 56 117 92 84 66 492 389 849 672 874 693 1573 1257 1680 1356 32 30
61 55 64 55 5 0 57 -77 57 -85 0 -3 -11 -5 -24 -5 -16 0 -71 -35 -148 -93
-243 -184 -906 -704 -1658 -1302 -63 -50 -216 -172 -340 -270 -183 -146 -615
-490 -628 -501 -2 -1 -2 -10 0 -20 2 -12 54 24 208 147 404 322 1327 1055
1540 1222 85 67 220 173 300 236 145 114 167 131 355 279 299 234 385 292 385
263 0 -22 -40 -57 -545 -476 -165 -137 -349 -290 -410 -340 -180 -150 -891
-735 -1014 -835 -31 -25 -135 -111 -231 -190 -96 -79 -268 -220 -382 -313
-146 -119 -208 -176 -208 -190 0 -18 2 -19 18 -5 9 8 105 86 212 174 222 180
438 357 555 454 66 54 537 443 959 790 214 176 869 722 963 802 74 63 103 95
108 117 l6 30 51 -40 c28 -22 64 -43 80 -46 16 -3 30 -9 33 -13 2 -4 -17 -22
-43 -40 -41 -30 -44 -30 -23 -7 14 16 21 32 17 43 -6 15 -8 15 -34 -2 -51 -33
-743 -595 -1082 -879 -47 -39 -137 -114 -200 -166 -63 -52 -180 -149 -260
-215 -344 -285 -919 -760 -959 -793 -24 -20 -76 -63 -115 -96 -40 -33 -130
-107 -201 -165 -70 -58 -164 -135 -208 -172 -44 -38 -83 -68 -87 -68 -3 0 -19
13 -34 29 l-27 28 50 40 c35 28 47 44 41 53 -7 11 -18 6 -52 -21 -24 -20 -48
-39 -55 -43 -12 -7 -115 53 -110 65 1 4 25 25 54 48 35 27 50 46 47 56 -5 12
-21 3 -70 -36 -51 -41 -69 -50 -89 -45 -23 6 -36 25 -17 26 4 1 19 11 34 23
19 15 25 26 19 36 -7 11 -18 6 -54 -23 -42 -35 -46 -36 -76 -23 l-32 14 25 17
c14 9 26 23 26 31 0 22 -21 18 -27 -4 -6 -24 -59 -33 -138 -22 -284 39 -639
-193 -710 -464 -16 -65 -20 -202 -6 -250 8 -30 6 -33 -87 -105 -52 -41 -158
-125 -236 -186 l-141 -112 -25 18 c-14 10 -63 54 -109 98 l-84 80 17 27 c28
42 1 51 -41 14 -19 -16 -56 -40 -82 -54 -27 -13 -51 -31 -55 -40 -26 -70 41
-294 141 -467 49 -84 122 -159 263 -268 244 -189 387 -280 440 -280 29 0 180
66 204 90 22 22 15 50 -13 50 -11 0 -48 26 -82 57 -61 57 -259 288 -259 303 0
4 21 10 48 14 77 10 155 57 386 233 59 46 113 83 120 83 6 0 47 -7 91 -15 260
-47 497 32 689 229 153 158 212 340 156 490 -12 32 -18 61 -14 66 15 13 508
432 529 449 14 12 13 7 -6 -19 -94 -128 -123 -299 -73 -446 35 -107 101 -157
257 -199 56 -16 116 -35 132 -43 62 -30 101 -81 105 -137 5 -66 0 -79 -48
-125 -63 -60 -161 -101 -457 -190 -126 -38 -268 -83 -315 -100 -206 -76 -314
-159 -380 -294 -47 -94 -64 -167 -85 -366 -9 -80 -25 -217 -37 -305 -26 -206
-32 -296 -18 -273 16 26 47 226 70 449 33 325 58 436 125 536 76 115 211 188
520 283 450 139 535 172 595 232 53 54 63 74 62 133 -1 116 -68 178 -240 222
-112 28 -184 64 -218 108 -74 98 -82 291 -17 419 26 51 102 150 110 143 2 -3
-10 -40 -28 -83 -54 -136 -72 -283 -48 -380 14 -55 44 -67 97 -38 47 25 167
147 199 202 24 40 25 49 21 145 -8 157 -48 247 -110 247 -15 0 -28 2 -28 5 0
18 61 91 112 134 34 29 91 78 127 110 36 32 161 141 276 242 228 199 296 259
726 640 278 247 348 311 629 565 139 125 260 223 417 337 130 94 116 90 229
66 111 -23 166 -17 234 26 50 31 61 31 90 0 20 -21 24 -35 22 -73 -1 -38 2
-50 19 -60 44 -28 177 46 215 120 29 56 -2 74 -71 41 l-36 -17 -36 37 c-20 20
-35 38 -33 39 3 2 44 22 91 45 86 41 86 41 115 24 16 -10 38 -28 49 -40 16
-18 17 -26 7 -41 -6 -11 -9 -27 -5 -36 13 -35 167 10 223 66 11 11 20 31 20
45 0 31 -29 40 -87 27 -37 -8 -46 -7 -77 15 -20 13 -36 27 -36 31 0 4 33 24
73 44 l73 36 63 -29 c57 -26 63 -31 56 -51 -4 -13 -8 -34 -9 -48 -4 -71 153 3
213 100 22 36 17 70 -10 70 -10 0 -39 -5 -63 -12 -37 -10 -51 -9 -90 6 -52 20
-56 28 -21 44 14 6 45 30 69 52 44 41 44 42 51 125 10 114 5 130 -53 159 -58
29 -253 92 -307 99 -22 3 -89 -1 -150 -9z m290 -60 c61 -19 128 -45 150 -57
l40 -23 -2 -81 c0 -45 -6 -90 -12 -102 -6 -11 -39 -39 -73 -62 l-61 -42 -19
23 c-18 23 -24 66 -10 86 4 6 33 25 65 43 55 31 73 60 47 76 -19 12 -80 -16
-108 -51 -21 -25 -75 -57 -201 -119 -95 -47 -238 -122 -318 -166 -80 -45 -201
-108 -268 -141 -128 -61 -172 -71 -228 -49 -72 28 -185 127 -208 183 -12 30
-11 33 28 67 70 62 398 247 669 377 98 47 124 56 220 68 130 17 147 15 289
-30z m-7 -356 c17 -17 15 -26 -13 -44 -20 -13 -30 -14 -60 -4 -78 26 -186 3
-200 -41 -4 -12 1 -31 10 -45 9 -14 15 -27 13 -29 -21 -18 -49 -23 -80 -14
-28 7 -49 5 -99 -11 -81 -26 -113 -51 -105 -84 5 -19 1 -26 -24 -36 -24 -10
-37 -9 -74 3 -43 15 -48 14 -137 -14 -50 -17 -97 -28 -103 -25 -6 2 -4 5 5 5
23 1 249 114 391 194 64 37 192 104 285 151 l168 84 6 -39 c3 -22 11 -45 17
-51z m97 -74 c56 -26 109 -29 158 -9 50 21 -15 -64 -82 -107 -60 -38 -76 -37
-56 1 20 41 11 58 -49 88 -28 14 -53 27 -56 30 -3 3 18 22 26 23 1 0 27 -12
59 -26z m-191 -2 c3 -5 -22 -21 -54 -37 -58 -28 -60 -28 -80 -10 -22 20 -18
32 14 45 27 11 113 12 120 2z m-83 -138 c49 -37 70 -43 120 -34 24 5 46 7 48
4 13 -13 -74 -69 -138 -89 -20 -6 -23 -4 -18 10 5 11 -8 32 -43 69 -27 29 -47
56 -43 59 13 14 40 6 74 -19z m-171 11 c0 -10 -151 -78 -157 -71 -12 12 21 35
77 55 57 20 80 25 80 16z m-284 -136 c2 -4 -19 -20 -48 -35 -42 -22 -66 -27
-117 -26 -35 0 -68 5 -74 11 -8 8 -5 11 9 11 10 1 57 14 103 29 79 27 114 30
127 10z m251 -60 c21 8 45 16 52 19 10 4 7 -6 -8 -27 -29 -40 -107 -91 -142
-91 -24 0 -26 3 -25 44 1 36 -4 50 -28 75 -16 17 -28 32 -25 34 32 28 45 25
91 -21 l48 -46 37 13z m-988 -235 c-13 -14 -112 -96 -219 -182 -768 -615
-1527 -1285 -1732 -1529 -38 -46 -121 -128 -186 -184 -263 -228 -624 -534
-630 -536 -4 -1 -23 19 -43 45 l-36 48 111 91 c61 50 210 173 331 273 121 100
283 235 361 299 311 257 782 646 1004 830 129 107 287 238 350 290 63 52 160
132 215 178 216 179 490 402 494 403 3 0 -6 -12 -20 -26z m-564 -513 c-77 -72
-1203 -1064 -1250 -1099 -53 -41 213 214 385 368 234 210 867 750 879 750 3 0
-3 -8 -14 -19z m-1520 -1391 c-3 -5 -16 -15 -28 -21 -22 -12 -22 -12 -3 10 19
21 43 30 31 11z m121 -42 c28 -54 44 -129 44 -209 0 -68 -3 -80 -30 -121 -37
-55 -159 -173 -190 -183 -38 -12 -45 9 -45 123 0 84 5 123 24 182 34 110 89
220 114 230 44 17 66 11 83 -22z m-1388 -148 c12 0 22 -4 22 -8 0 -15 -77 -52
-108 -52 -83 0 -227 -83 -339 -195 -93 -93 -112 -135 -113 -242 l0 -82 -71
-57 c-39 -31 -73 -53 -77 -49 -4 4 -9 47 -10 96 -7 177 72 330 233 449 119 88
310 156 405 145 19 -3 45 -5 58 -5z m135 -39 c5 -5 -1 -16 -16 -26 -21 -14
-32 -14 -68 -5 l-42 12 29 19 c29 20 77 20 97 0z m76 -30 c12 -8 12 -12 2 -25
-14 -17 -38 -20 -66 -10 -14 6 -14 8 1 25 19 21 41 24 63 10z m-319 -25 c0 -2
-61 -47 -135 -100 -168 -121 -230 -181 -249 -244 -12 -40 -15 -43 -15 -18 -3
98 169 273 335 341 65 27 64 27 64 21z m149 -5 c21 -6 -5 -29 -233 -209 -141
-112 -263 -205 -271 -208 -12 -5 -14 0 -9 27 18 93 71 148 294 304 137 96 157
104 219 86z m279 -31 c23 -17 42 -33 42 -38 0 -4 -11 -14 -23 -23 -21 -16 -25
-15 -74 21 -48 34 -51 38 -35 53 23 24 43 21 90 -13z m-188 0 c18 -13 47 13
-309 -274 -150 -120 -274 -216 -277 -213 -3 2 -6 16 -7 30 -2 22 34 54 278
246 154 122 284 221 290 221 5 0 17 -5 25 -10z m108 -60 c23 -17 42 -34 42
-38 0 -8 -20 -26 -214 -183 -441 -356 -511 -409 -525 -404 -8 3 -35 9 -58 12
-37 5 -48 2 -68 -17 -22 -21 -56 -22 -55 -3 1 8 99 90 127 106 10 6 21 2 34
-12 42 -45 82 -14 53 41 -19 36 -33 19 140 159 341 274 462 369 472 369 6 0
30 -14 52 -30z m189 -25 l28 -25 -35 -30 -34 -30 -23 27 c-28 35 -28 41 0 64
29 24 31 24 64 -6z m-86 -76 c13 -18 18 -34 12 -38 -5 -3 -94 -76 -197 -161
-104 -85 -203 -166 -220 -180 -18 -14 -80 -64 -138 -112 -58 -49 -112 -88
-120 -88 -7 0 -30 8 -51 18 l-39 17 239 192 c131 106 290 234 353 287 63 52
120 95 127 95 6 1 22 -13 34 -30z m180 -25 l32 -47 -58 -51 c-33 -28 -61 -51
-64 -51 -3 0 -9 20 -12 45 -3 25 -9 56 -12 70 -6 21 -1 30 30 53 20 15 40 27
44 27 4 0 22 -21 40 -46z m-137 -66 c3 -13 6 -45 6 -71 0 -56 27 -29 -292
-293 -247 -204 -222 -192 -332 -157 l-50 16 25 19 c51 40 389 317 502 410 65
54 121 98 126 98 5 0 11 -10 15 -22z m210 -61 c72 -188 -83 -453 -354 -604
-129 -72 -276 -97 -429 -73 -45 7 -84 16 -86 20 -3 5 32 38 77 74 75 60 87 66
129 66 100 0 257 78 353 174 63 64 107 140 129 224 10 41 23 58 77 105 36 31
70 56 76 56 6 1 19 -18 28 -42z m-240 -195 c-43 -89 -153 -193 -255 -242 -46
-22 -104 -42 -129 -45 l-45 -6 35 29 c237 202 416 345 418 334 2 -7 -9 -39
-24 -70z m-835 -7 c0 -5 -4 -3 -9 5 -5 8 -9 22 -9 30 0 16 17 -16 18 -35z
m-43 -2 c6 -23 1 -32 -37 -66 -24 -21 -56 -47 -71 -58 l-26 -19 -10 30 c-11
29 -9 32 56 84 37 30 70 55 74 55 4 1 11 -11 14 -26z m74 -54 c0 -6 -4 -7 -10
-4 -5 3 -10 11 -10 16 0 6 5 7 10 4 6 -3 10 -11 10 -16z m-242 -84 c11 -23 6
-29 -96 -112 -150 -123 -369 -310 -377 -323 -14 -22 6 -30 42 -15 40 17 48 14
68 -25 14 -26 13 -29 -10 -44 -14 -9 -37 -21 -51 -26 -33 -13 -26 -33 14 -41
40 -8 62 -26 62 -51 0 -24 26 -34 45 -18 29 24 71 -8 169 -129 90 -111 230
-254 270 -277 17 -9 7 -15 -67 -47 -47 -20 -91 -37 -99 -37 -66 0 -518 330
-615 450 -93 115 -190 340 -200 465 l-5 60 56 28 57 27 31 -35 c17 -20 44 -43
60 -51 16 -8 32 -23 36 -33 8 -21 98 -101 114 -101 9 0 220 161 383 294 44 35
85 65 91 65 6 1 16 -10 22 -24z m196 -54 c17 -6 13 -12 -26 -44 -25 -20 -48
-37 -52 -37 -10 0 -7 49 4 71 11 19 40 24 74 10z m-159 -24 c0 -20 -358 -288
-370 -276 -2 2 71 65 162 139 91 74 171 140 177 147 14 16 31 11 31 -10z m262
-14 c21 -10 40 -19 42 -20 2 -2 -7 -11 -20 -22 -13 -10 -47 -37 -75 -60 l-51
-40 -32 33 -32 32 58 47 c32 25 61 46 65 47 4 0 24 -8 45 -17z m-215 -75 c-4
-4 -88 -70 -187 -147 l-180 -140 -22 27 c-12 15 -22 29 -23 32 0 3 28 23 62
45 89 57 312 220 329 241 12 15 14 14 21 -17 4 -19 4 -37 0 -41z m381 15 c31
-9 57 -19 57 -22 0 -3 -36 -35 -80 -70 l-81 -63 -60 22 c-33 13 -62 26 -64 31
-8 12 138 129 155 123 8 -3 41 -12 73 -21z m-327 -72 l33 -30 -162 -129 c-230
-183 -253 -198 -272 -182 -8 7 -15 27 -15 45 0 30 9 40 93 103 50 39 135 104
187 146 52 41 97 75 99 76 2 0 18 -13 37 -29z m139 -83 c28 -11 51 -21 53 -23
4 -4 -205 -160 -307 -228 -47 -32 -102 -62 -124 -68 -47 -12 -119 -8 -124 8
-2 6 30 37 72 70 42 32 138 107 213 166 93 74 141 106 151 101 9 -4 39 -15 66
-26z m-595 -162 c0 -6 -9 0 -20 14 -26 33 -25 52 0 21 11 -13 20 -28 20 -35z
m15 -118 c8 -40 -8 -54 -20 -18 -3 11 -15 25 -27 31 -19 10 -19 11 -2 30 23
25 40 10 49 -43z"/>
<path d="M6388 6270 c-194 -33 -337 -150 -581 -480 -270 -363 -311 -409 -391
-429 -24 -6 -154 -27 -288 -46 -595 -87 -808 -171 -1119 -441 -271 -235 -475
-547 -526 -803 -15 -79 -13 -276 6 -406 5 -33 8 -61 7 -62 -5 -6 -260 -23
-491 -34 -277 -13 -2021 -14 -2585 -1 -184 4 -341 6 -347 4 -21 -6 -15 -21 10
-27 12 -2 450 -9 972 -15 1171 -13 2084 1 2393 35 39 5 53 3 56 -7 2 -7 11
-49 21 -93 76 -345 318 -753 654 -1099 420 -431 860 -574 1456 -471 354 61
649 212 868 445 222 236 343 518 377 880 31 335 41 378 97 461 58 86 -18 80
823 68 553 -9 1275 -9 2800 0 2100 12 2344 15 2337 35 -5 13 210 14 -2202 -2
-1830 -13 -2826 -11 -3404 4 -190 5 -222 8 -207 20 40 29 207 87 388 134 252
66 312 86 350 118 31 26 88 132 88 164 0 24 -19 33 -26 11 -3 -10 -19 -46 -35
-80 -43 -90 -68 -102 -380 -182 -200 -51 -264 -73 -375 -127 -96 -47 -162 -57
-198 -31 -18 13 -17 15 13 36 57 41 203 108 426 195 121 48 258 103 305 123
179 77 225 135 257 331 7 40 23 42 23 2 0 -23 4 -28 16 -23 12 4 14 14 9 47
-4 22 -13 48 -21 56 -24 24 -42 -6 -59 -99 -28 -146 -79 -216 -193 -267 -32
-14 -176 -73 -322 -131 -371 -147 -500 -216 -500 -268 0 -20 27 -36 70 -42 44
-6 49 -13 24 -34 -27 -22 -65 -88 -85 -148 -13 -36 -27 -129 -39 -262 -21
-226 -46 -365 -85 -478 -198 -566 -674 -899 -1357 -951 -435 -33 -775 85
-1109 383 -253 226 -537 614 -662 904 -48 112 -122 372 -109 385 4 3 28 9 55
13 45 7 47 6 47 -16 0 -38 55 -237 95 -345 48 -128 149 -328 221 -435 226
-337 508 -528 844 -570 132 -16 423 -13 558 6 474 68 867 277 1074 569 71 101
93 147 77 157 -9 5 -21 -6 -39 -39 -179 -328 -550 -556 -1055 -648 -122 -22
-483 -31 -613 -14 -282 35 -524 179 -731 435 -174 214 -327 541 -390 830 -18
81 -18 84 0 100 39 36 63 169 39 216 -6 11 -21 19 -36 19 -35 0 -57 -55 -59
-150 l-2 -75 -42 -9 c-33 -7 -45 -6 -51 4 -13 22 -25 173 -24 315 0 120 3 138
33 225 72 211 194 394 395 596 265 264 452 372 787 454 117 28 194 42 546 95
103 15 177 32 203 45 58 29 117 94 248 270 217 292 253 338 323 409 203 206
368 256 649 196 189 -40 430 -172 430 -235 0 -20 -66 -82 -147 -139 -32 -21
-53 -44 -53 -55 0 -17 2 -17 23 -3 12 8 21 22 19 31 -2 12 5 16 26 16 21 0 46
15 90 56 35 31 67 65 73 75 23 44 -58 123 -196 191 -189 95 -404 135 -567 108z
m-2688 -2508 c0 -26 -9 -65 -19 -87 l-18 -40 -7 38 c-11 59 12 155 35 142 5
-4 9 -27 9 -53z"/>
<path d="M6936 5767 c-10 -7 -17 -21 -15 -31 4 -15 6 -15 23 -3 10 7 17 21 15
31 -4 15 -6 15 -23 3z"/>
<path d="M6828 5754 c-5 -4 -8 -16 -8 -28 0 -14 3 -17 11 -9 6 6 9 19 7 28 -1
9 -6 13 -10 9z"/>
<path d="M6717 5675 c-10 -7 -17 -21 -15 -30 3 -14 6 -14 22 -2 10 7 17 21 15
29 -3 14 -7 15 -22 3z"/>
<path d="M6828 5684 c-5 -4 -8 -16 -8 -28 0 -14 3 -17 11 -9 6 6 9 19 7 28 -1
9 -6 13 -10 9z"/>
<path d="M6937 5672 c-10 -11 -17 -27 -15 -36 5 -25 40 8 36 34 l-3 22 -18
-20z"/>
<path d="M6603 5603 c-15 -6 -17 -43 -3 -43 12 0 24 25 18 38 -1 5 -9 7 -15 5z"/>
<path d="M6718 5593 c-19 -21 -24 -43 -9 -43 15 0 33 28 29 46 -3 14 -5 14
-20 -3z"/>
<path d="M6823 5570 c-12 -28 -8 -39 8 -23 6 6 9 19 6 29 -3 17 -5 16 -14 -6z"/>
<path d="M6935 5471 c-16 -19 -16 -20 2 -18 11 0 20 9 20 19 2 23 0 22 -22 -1z"/>
<path d="M7963 4403 c-7 -15 -10 -29 -7 -32 7 -8 34 29 34 46 0 22 -14 15 -27
-14z"/>
<path d="M0 450 l0 -450 6500 0 6500 0 0 450 0 450 -6500 0 -6500 0 0 -450z
m780 49 l0 -200 -32 3 -33 3 -3 185 c-1 101 0 190 2 197 3 7 19 13 36 13 l30
0 0 -201z m-115 106 c24 -23 25 -30 25 -149 0 -68 3 -131 6 -140 5 -13 -1 -16
-29 -16 -19 0 -37 6 -40 13 -4 10 -7 10 -18 0 -7 -7 -28 -13 -46 -13 -44 0
-68 35 -60 91 6 46 25 71 78 101 41 23 55 51 33 68 -17 15 -34 4 -34 -21 0
-15 -7 -19 -35 -19 -32 0 -35 2 -35 30 0 46 39 80 90 80 30 0 47 -6 65 -25z
m273 19 c41 -11 52 -51 52 -194 l0 -130 -29 0 c-16 0 -31 6 -34 13 -4 10 -7
10 -18 0 -19 -18 -69 -16 -91 4 -23 20 -24 90 -3 121 9 12 36 36 61 53 34 23
44 36 42 52 -4 32 -36 34 -44 3 -5 -22 -12 -26 -41 -26 -34 0 -34 1 -28 33 12
60 66 89 133 71z m162 -9 c17 21 57 19 72 -4 12 -19 12 -19 36 0 30 23 55 24
76 3 13 -13 16 -42 16 -165 l0 -149 -30 0 -30 0 -1 110 c-1 61 -3 115 -4 120
-1 6 -3 17 -4 25 -1 20 -27 19 -35 -1 -3 -9 -6 -69 -6 -135 l0 -119 -35 0 -34
0 -3 133 c-3 109 -6 132 -18 132 -12 0 -15 -23 -18 -132 l-3 -133 -34 0 -35 0
0 159 0 160 28 3 c15 2 32 -2 38 -9 9 -11 14 -10 24 2z m292 -124 c3 -118 4
-126 23 -126 19 0 20 8 23 128 l3 127 34 0 35 0 0 -180 c0 -111 -4 -188 -11
-204 -13 -28 -35 -36 -106 -36 -52 0 -53 0 -53 30 0 27 3 30 34 30 49 0 66 9
66 35 0 22 -2 23 -25 11 -38 -20 -72 -9 -84 27 -11 29 -16 279 -6 289 3 2 18
3 35 0 l29 -4 3 -127z m9803 89 c0 -27 -4 -50 -10 -50 -5 0 -10 23 -10 50 0
28 5 50 10 50 6 0 10 -22 10 -50z m470 0 c0 -27 -4 -50 -10 -50 -5 0 -10 23
-10 50 0 28 5 50 10 50 6 0 10 -22 10 -50z m93 38 c7 -7 12 -24 12 -38 0 -34
-17 -50 -52 -50 -27 0 -28 2 -28 50 0 48 1 50 28 50 15 0 33 -5 40 -12z m160
-14 c2 -11 -4 -27 -13 -34 -21 -17 -19 -28 8 -33 16 -3 13 -5 -10 -6 -38 -1
-41 8 -13 34 27 25 27 59 0 52 -11 -3 -17 -1 -14 4 10 17 39 5 42 -17z m100
14 c7 -7 12 -24 12 -38 0 -34 -17 -50 -52 -50 -27 0 -28 2 -28 50 0 48 1 50
28 50 15 0 33 -5 40 -12z m80 0 c7 -7 12 -24 12 -38 0 -31 -17 -50 -44 -49
-20 0 -20 0 0 9 31 12 39 30 14 30 -23 0 -35 22 -26 45 7 18 28 19 44 3z m76
-5 c20 26 29 20 11 -7 -15 -23 -15 -27 0 -50 10 -14 13 -26 7 -26 -6 0 -14 10
-18 22 l-7 22 -17 -22 c-25 -30 -34 -28 -13 4 13 21 14 30 5 45 -17 27 -14 38
4 14 14 -19 16 -19 28 -2z m95 3 c15 -18 3 -46 -20 -46 -12 0 -19 -7 -19 -20
0 -11 -4 -20 -10 -20 -5 0 -10 23 -10 50 0 46 2 50 24 50 13 0 29 -6 35 -14z
m86 -36 c0 -43 -1 -45 -32 -48 l-33 -3 0 51 0 51 33 -3 c31 -3 32 -5 32 -48z
m62 8 l19 -41 13 41 c19 57 31 53 29 -10 -1 -47 -2 -49 -5 -13 l-4 39 -19 -39
-18 -40 -15 35 c-16 35 -21 33 -17 -7 1 -13 -3 -23 -9 -23 -6 0 -11 21 -11 50
0 28 4 50 10 50 5 0 17 -19 27 -42z m-1090 -23 l1 -40 -6 35 c-4 22 -13 35
-22 35 -9 0 -17 -13 -21 -35 l-6 -35 -2 38 c-1 45 -27 52 -37 10 -10 -48 -12
-49 -13 -7 l-1 41 53 -1 52 -1 2 -40z m77 29 c3 -9 6 -26 6 -38 0 -19 -5 -23
-27 -22 -37 1 -39 37 -3 47 l25 6 -25 11 c-23 10 -23 11 -4 11 12 1 25 -6 28
-15z m84 -41 c-3 -54 -5 -58 -28 -60 -25 -3 -25 -3 -2 7 12 5 22 15 22 23 0 8
-10 13 -22 13 -17 -1 -24 5 -26 22 -5 36 5 52 33 52 25 0 26 -2 23 -57z m90
35 c3 -14 -3 -18 -23 -18 -33 0 -29 -21 6 -32 22 -6 21 -7 -6 -5 -23 2 -31 7
-33 25 -2 13 -1 30 2 38 8 21 50 14 54 -8z m232 12 c0 -5 -4 -10 -10 -10 -5 0
-10 5 -10 10 0 6 5 10 10 10 6 0 10 -4 10 -10z m0 -60 c0 -5 -4 -10 -10 -10
-5 0 -10 5 -10 10 0 6 5 10 10 10 6 0 10 -4 10 -10z m-50 -190 c0 -47 -3 -60
-15 -60 -12 0 -15 13 -15 60 0 47 3 60 15 60 12 0 15 -13 15 -60z m-580 10 c0
-11 5 -20 10 -20 6 0 10 9 10 21 0 29 32 21 41 -11 l6 -25 8 28 c7 28 25 38
25 13 0 -27 -22 -76 -35 -76 -7 0 -16 15 -20 33 l-7 32 -9 -32 c-13 -46 -34
-41 -46 12 -8 36 -8 45 3 45 8 0 14 -9 14 -20z m140 0 c0 -11 5 -20 10 -20 6
0 10 9 10 21 0 29 32 21 41 -11 l6 -25 8 28 c7 28 25 38 25 13 0 -27 -22 -76
-35 -76 -7 0 -16 15 -20 33 l-8 32 -6 -30 c-10 -48 -36 -43 -48 10 -8 36 -8
45 3 45 8 0 14 -9 14 -20z m140 0 c0 -11 5 -20 10 -20 6 0 10 9 10 21 0 29 32
21 41 -11 l6 -25 8 28 c7 28 25 38 25 13 0 -27 -22 -76 -35 -76 -7 0 -16 15
-20 33 l-8 32 -6 -30 c-10 -48 -36 -43 -48 10 -8 36 -8 45 3 45 8 0 14 -9 14
-20z m235 10 c3 -5 7 -25 8 -43 3 -33 2 -34 -32 -33 -31 1 -36 4 -36 26 0 17
7 26 25 31 24 7 24 7 3 8 -13 1 -23 6 -23 11 0 13 47 13 55 0z m153 -35 c3
-40 2 -41 -30 -40 -28 0 -33 4 -33 25 0 17 7 26 25 31 24 7 24 7 3 8 -13 1
-23 6 -23 12 0 6 12 9 28 7 24 -3 27 -8 30 -43z m159 32 c13 -22 11 -77 -3
-77 -9 0 -14 12 -14 36 0 45 -24 42 -28 -4 -2 -18 -7 -32 -12 -32 -5 0 -10 14
-12 32 -4 46 -28 49 -28 4 0 -25 -4 -36 -15 -36 -11 0 -15 12 -15 44 l0 43 60
0 c33 0 63 -5 67 -10z m58 -14 l8 -28 10 28 c6 15 17 27 25 27 10 0 12 -6 7
-17 -4 -10 -14 -37 -22 -61 -15 -42 -37 -62 -51 -47 -4 4 -1 10 6 12 16 6 15
42 -3 73 -18 32 -18 40 -1 40 8 0 17 -12 21 -27z m175 18 c0 -5 -9 -11 -20
-14 -11 -3 -20 -13 -20 -22 0 -9 9 -19 20 -22 23 -6 27 -23 6 -23 -31 0 -46
13 -46 39 0 15 5 32 12 39 14 14 48 16 48 3z m90 -5 c28 -35 -11 -93 -47 -70
-36 22 -23 84 17 84 10 0 23 -7 30 -14z m157 0 c13 -21 11 -76 -3 -76 -9 0
-14 12 -14 36 0 45 -24 42 -28 -4 -2 -18 -7 -32 -12 -32 -5 0 -10 14 -12 32
-4 46 -28 49 -28 4 0 -25 -4 -36 -15 -36 -11 0 -15 12 -15 44 l0 43 60 0 c33
0 64 -5 67 -11z m-886 -69 c-13 -13 -26 -3 -16 12 3 6 11 8 17 5 6 -4 6 -10
-1 -17z m550 0 c-13 -13 -26 -3 -16 12 3 6 11 8 17 5 6 -4 6 -10 -1 -17z"/>
<path d="M597 432 c-30 -31 -35 -60 -12 -68 24 -10 41 12 43 56 2 22 1 40 -1
40 -2 0 -15 -13 -30 -28z"/>
<path d="M894 438 c-30 -33 -35 -44 -28 -62 8 -20 43 -21 50 -2 3 8 4 31 2 51
l-3 37 -21 -24z"/>
<path d="M11710 580 c0 -33 3 -41 16 -38 26 5 41 35 28 56 -6 9 -19 18 -28 20
-13 3 -16 -5 -16 -38z"/>
<path d="M11970 580 c0 -33 3 -41 16 -38 26 5 41 35 28 56 -6 9 -19 18 -28 20
-13 3 -16 -5 -16 -38z"/>
<path d="M12067 614 c-14 -14 -7 -35 11 -32 9 2 17 10 17 17 0 16 -18 25 -28
15z"/>
<path d="M12230 601 c0 -12 6 -21 16 -21 9 0 14 7 12 17 -5 25 -28 28 -28 4z"/>
<path d="M12310 605 c0 -10 7 -15 18 -13 21 4 19 22 -2 26 -10 2 -16 -3 -16
-13z"/>
<path d="M12310 560 c0 -15 5 -20 18 -18 9 2 17 10 17 18 0 8 -8 16 -17 18
-13 2 -18 -3 -18 -18z"/>
<path d="M11367 563 c-12 -11 -8 -23 7 -23 8 0 16 7 20 15 5 15 -14 21 -27 8z"/>
<path d="M11444 586 c-8 -22 3 -49 19 -43 6 2 12 14 12 27 0 27 -22 39 -31 16z"/>
<path d="M11535 590 c-3 -5 3 -10 15 -10 12 0 18 5 15 10 -3 6 -10 10 -15 10
-5 0 -12 -4 -15 -10z"/>
<path d="M11657 333 c-12 -11 -8 -23 8 -23 8 0 15 7 15 15 0 16 -12 20 -23 8z"/>
<path d="M11807 333 c-12 -11 -8 -23 8 -23 8 0 15 7 15 15 0 16 -12 20 -23 8z"/>
<path d="M12283 344 c-8 -21 13 -42 28 -27 13 13 5 43 -11 43 -6 0 -13 -7 -17
-16z"/>
</g>
</svg>
