<?xml version="1.0" standalone="no"?>
<!DOCTYPE svg PUBLIC "-//W3C//DTD SVG 20010904//EN"
 "http://www.w3.org/TR/2001/REC-SVG-20010904/DTD/svg10.dtd">
<svg version="1.0" xmlns="http://www.w3.org/2000/svg"
 width="540.000000pt" height="190.000000pt" viewBox="0 0 540.000000 190.000000"
 preserveAspectRatio="xMidYMid meet">

<g transform="translate(0.000000,190.000000) scale(0.100000,-0.100000)"
fill="#000000" stroke="none">
<path d="M890 1652 c-121 -32 -208 -97 -261 -194 l-34 -63 -5 -456 -5 -457
-225 69 c-228 69 -276 79 -298 57 -8 -8 -12 -63 -12 -180 0 -147 2 -170 18
-185 9 -10 141 -56 294 -102 268 -81 278 -83 303 -67 l25 16 2 487 3 486 30
-25 c132 -111 336 -129 500 -45 79 40 131 91 167 165 29 58 33 76 33 147 0 69
-4 88 -30 138 -39 78 -127 159 -202 187 -116 43 -198 49 -303 22z m236 -107
c99 -28 173 -104 194 -199 42 -190 -193 -355 -415 -291 -161 47 -254 200 -200
329 36 86 133 157 237 175 59 10 109 6 184 -14z m-679 -1128 l143 -42 0 -97 0
-97 -42 13 c-24 7 -123 37 -220 67 l-178 54 0 97 0 96 78 -24 c42 -13 141 -43
219 -67z"/>
<path d="M2274 692 c-25 -17 -36 -56 -32 -125 l3 -72 -85 -5 c-64 -4 -85 -9
-85 -19 0 -20 19 -28 108 -47 95 -20 102 -30 116 -166 11 -115 30 -165 65
-174 57 -14 59 14 11 151 -19 55 -35 114 -35 131 l0 31 89 6 c93 6 131 18 131
41 0 28 -28 40 -69 27 -118 -35 -174 15 -188 165 -6 64 -9 70 -29 56z"/>
<path d="M3264 679 c-15 -17 -19 -37 -19 -103 l0 -81 -83 -3 c-79 -3 -83 -4
-80 -24 3 -18 16 -24 88 -40 46 -10 90 -24 97 -31 8 -7 18 -41 23 -75 6 -34
14 -90 20 -124 11 -73 37 -113 71 -113 21 0 24 4 23 40 0 22 -13 74 -29 115
-16 41 -29 93 -29 115 l-1 40 75 6 c124 10 142 16 138 47 -3 30 -18 32 -105
17 -89 -15 -127 27 -146 162 -5 40 -13 73 -17 73 -4 0 -15 -9 -26 -21z"/>
<path d="M2761 638 c-10 -26 2 -38 37 -38 24 0 31 27 10 48 -19 19 -38 14 -47
-10z"/>
<path d="M4024 545 c-4 -8 -1 -44 6 -79 22 -115 -18 -259 -81 -295 -58 -32
-105 13 -135 128 -13 52 -14 74 -4 127 6 36 8 69 5 74 -10 17 -44 11 -55 -9
-23 -45 -5 -228 32 -313 28 -66 68 -98 121 -98 71 0 123 48 160 148 25 68 37
275 18 311 -14 25 -59 29 -67 6z"/>
<path d="M1049 511 c-115 -63 -186 -228 -145 -335 23 -61 50 -76 135 -76 64 0
73 3 127 39 l59 40 22 -50 c23 -52 49 -71 64 -48 5 8 7 25 4 39 -3 14 -12 81
-20 150 -23 188 -62 249 -162 257 -34 2 -58 -2 -84 -16z m131 -77 c16 -40 12
-152 -6 -190 -30 -64 -138 -104 -189 -70 -21 14 -25 24 -25 67 0 116 83 218
178 219 26 0 34 -5 42 -26z"/>
<path d="M5019 507 c-51 -27 -112 -103 -134 -166 -19 -57 -19 -144 0 -181 25
-47 52 -60 131 -60 66 0 74 2 128 40 l56 40 27 -55 c28 -57 42 -66 63 -40 9
10 9 23 1 47 -5 18 -15 80 -21 138 -12 117 -32 190 -58 213 -25 23 -87 47
-120 47 -16 0 -49 -10 -73 -23z m138 -77 c17 -33 16 -132 -1 -173 -27 -66
-121 -113 -184 -93 -53 17 -48 137 9 216 58 80 148 105 176 50z"/>
<path d="M2798 459 c-15 -8 -18 -24 -18 -92 0 -109 16 -214 38 -251 14 -24 25
-31 48 -31 26 0 29 3 32 36 2 20 -10 95 -27 165 -16 71 -31 140 -33 153 -4 28
-16 34 -40 20z"/>
<path d="M1726 417 c-23 -23 -48 -61 -55 -85 -13 -38 -31 -57 -31 -31 0 16
-60 133 -73 141 -15 9 -37 -10 -37 -31 0 -31 49 -162 84 -225 43 -76 76 -109
108 -104 21 3 23 8 20 48 -9 165 -7 188 14 217 24 33 55 41 74 18 16 -19 59
-20 66 0 18 46 -32 95 -97 95 -25 0 -42 -10 -73 -43z"/>
<path d="M4522 439 c-22 -15 -43 -43 -64 -89 l-32 -68 -23 56 c-40 99 -77 135
-89 86 -13 -51 63 -235 127 -309 24 -27 39 -35 58 -33 29 3 29 6 16 144 -6 57
-4 78 10 108 20 43 57 57 84 32 22 -20 60 -21 67 -1 10 24 -15 71 -42 84 -37
17 -75 13 -112 -10z"/>
</g>
</svg>
