<?xml version="1.0" standalone="no"?>
<!DOCTYPE svg PUBLIC "-//W3C//DTD SVG 20010904//EN"
 "http://www.w3.org/TR/2001/REC-SVG-20010904/DTD/svg10.dtd">
<svg version="1.0" xmlns="http://www.w3.org/2000/svg"
 width="1000.000000pt" height="800.000000pt" viewBox="0 0 1000.000000 800.000000"
 preserveAspectRatio="xMidYMid meet">

<g transform="translate(0.000000,800.000000) scale(0.100000,-0.100000)"
fill="#000000" stroke="none">
<path d="M3002 6038 c-6 -7 -12 -31 -14 -53 l-3 -40 -213 -5 -214 -5 -23 -27
c-13 -15 -26 -47 -30 -70 -5 -41 -29 -268 -169 -1633 -36 -346 -67 -647 -70
-668 -2 -21 -12 -47 -22 -58 -16 -18 -43 -19 -833 -21 -718 -3 -816 -5 -816
-18 0 -13 98 -15 815 -18 448 -1 825 0 838 3 33 8 60 60 66 129 12 124 68 674
151 1468 47 449 85 821 85 827 0 6 9 20 20 31 19 19 33 20 216 20 l196 0 -6
-47 c-7 -58 -105 -967 -146 -1356 -17 -155 -30 -292 -30 -305 0 -13 13 -37 29
-53 26 -26 36 -29 93 -29 35 0 87 -3 117 -7 l54 -6 -6 -71 c-4 -39 -14 -179
-23 -311 -11 -162 -21 -247 -31 -262 l-13 -23 -318 0 c-180 0 -333 -4 -353
-10 -23 -6 -40 -19 -47 -35 -7 -16 -12 -104 -13 -240 -1 -186 1 -219 16 -241
33 -51 56 -54 429 -54 l344 0 30 25 c43 36 52 92 52 308 0 129 4 187 12 195 9
9 98 12 340 12 307 0 329 1 347 19 21 21 25 82 37 484 l7 217 124 0 c138 0
173 10 191 57 14 33 30 248 77 993 41 649 44 691 59 695 58 15 239 36 247 28
5 -5 6 -486 2 -1226 l-6 -1217 -323 0 c-224 0 -331 -4 -348 -12 -39 -17 -46
-61 -46 -296 0 -184 -2 -213 -16 -219 -8 -3 -50 3 -92 13 -106 25 -280 23
-437 -5 -66 -12 -124 -26 -129 -31 -5 -5 -6 -16 -3 -24 6 -14 78 -16 687 -16
445 0 688 4 700 10 41 22 45 47 50 295 l5 240 343 1 344 1 26 27 27 26 3 335
3 335 120 0 121 0 30 31 31 31 -6 306 c-4 169 -10 550 -14 848 -6 515 -5 541
12 548 10 3 20 5 22 3 2 -2 19 -341 38 -753 48 -1035 41 -952 75 -986 28 -28
30 -28 147 -28 l119 0 17 -262 c10 -145 21 -296 24 -335 l6 -73 -361 0 -361 0
-28 -24 -28 -24 -3 -242 c-2 -189 -6 -242 -16 -246 -8 -3 -40 2 -72 11 -135
36 -331 30 -477 -15 -53 -16 -67 -25 -67 -40 0 -20 11 -20 664 -20 398 0 675
4 690 10 14 5 33 21 42 35 16 24 17 54 15 271 l-2 244 283 1 c156 1 329 2 386
3 98 1 103 0 98 -19 -3 -11 -6 -120 -6 -242 0 -270 10 -255 -148 -222 -145 31
-342 31 -455 1 -97 -27 -132 -43 -132 -62 0 -13 93 -15 747 -15 l746 0 26 24
c14 14 30 38 34 55 5 17 7 120 4 228 l-5 197 29 31 29 30 827 0 c821 0 828 0
828 20 0 20 -7 20 -824 20 l-823 0 -6 48 c-76 615 -255 2022 -278 2182 -39
275 -32 267 -219 261 -36 -1 -104 -9 -153 -18 -82 -14 -89 -14 -115 3 -24 16
-49 18 -247 15 -121 -1 -222 -5 -225 -7 -13 -14 24 -41 81 -61 67 -23 181 -31
314 -24 l70 5 6 -55 c4 -30 12 -130 18 -224 15 -212 85 -984 110 -1205 25
-218 30 -210 -119 -210 -104 0 -110 1 -110 21 0 20 50 49 86 49 64 0 128 76
106 125 l-12 25 -184 0 -185 0 -10 38 c-5 20 -15 102 -21 182 -16 204 -56 574
-86 780 -55 383 -138 669 -192 658 -21 -4 -28 96 58 -858 90 -1011 89 -1000
101 -1021 20 -38 62 -49 182 -49 l114 0 17 -142 c9 -78 24 -218 34 -311 l17
-169 -22 -18 c-19 -15 -58 -18 -370 -22 -191 -3 -350 -4 -352 -2 -6 6 -29 316
-37 507 l-7 157 112 0 c194 0 197 5 182 292 -9 163 -39 811 -64 1373 -8 172
-4 170 -326 170 l-253 1 -22 44 c-14 31 -27 45 -41 45 -18 0 -20 -6 -17 -51 3
-49 2 -52 -27 -64 -25 -10 -33 -9 -53 4 -19 13 -57 16 -240 16 -140 0 -219 -4
-223 -10 -11 -18 13 -38 73 -62 51 -20 75 -23 222 -24 l165 -1 6 -594 c3 -327
10 -697 14 -824 9 -285 16 -269 -125 -273 -55 -2 -107 -1 -116 2 -29 11 5 44
74 70 79 31 120 68 128 118 l6 35 -183 7 c-101 3 -185 9 -188 12 -3 3 -9 123
-13 267 -9 358 -26 694 -44 863 -32 316 -88 520 -137 501 -17 -6 -17 -26 2
-1345 7 -481 9 -535 25 -550 13 -14 42 -18 144 -22 l127 -5 3 -260 c3 -287 -2
-378 -25 -400 -12 -13 -66 -15 -350 -15 l-336 0 6 448 c4 246 7 800 7 1232 l1
785 -23 18 c-14 12 -32 17 -48 14 -14 -3 -73 -12 -133 -22 l-107 -17 -31 26
-31 26 -218 0 c-184 0 -219 -2 -224 -15 -6 -17 16 -34 79 -61 31 -14 76 -19
208 -22 l167 -4 0 -32 c0 -35 -61 -988 -87 -1370 -14 -201 -21 -253 -34 -270
-15 -19 -30 -21 -139 -24 -144 -4 -154 7 -46 50 113 46 161 95 154 156 -3 27
-4 27 -103 34 -55 5 -139 5 -186 2 -113 -8 -119 -2 -113 103 10 174 35 665 46
920 9 204 9 304 1 395 -13 144 -39 233 -69 233 -12 0 -20 -8 -21 -20 -7 -52
-115 -1626 -120 -1745 -7 -171 -14 -164 153 -168 82 -2 124 -8 127 -15 2 -7 1
-120 -4 -252 -4 -132 -8 -272 -8 -312 -1 -111 21 -105 -350 -101 -340 3 -353
1 -372 -49 -5 -14 -7 -64 -4 -112 9 -129 -7 -338 -28 -358 -14 -15 -56 -17
-342 -20 -220 -3 -337 -1 -360 7 -54 18 -59 41 -49 272 l9 203 348 5 349 5 23
27 c19 22 24 43 29 110 4 46 13 180 21 298 9 118 18 230 21 248 l5 32 104 0
c120 0 178 17 199 59 25 49 56 307 126 1071 22 239 45 479 50 532 13 113 0
161 -46 178 -16 6 -125 10 -268 10 l-241 -1 -8 34 c-11 45 -39 73 -55 55z
m563 -148 c8 -7 15 -26 15 -43 0 -17 -23 -274 -50 -571 -43 -461 -68 -696
-106 -1019 -4 -33 -15 -68 -26 -82 -18 -24 -25 -25 -124 -25 -62 0 -104 4
-104 10 0 5 38 34 84 64 93 60 116 86 116 132 l0 31 -67 6 c-38 4 -118 7 -179
7 -85 0 -114 3 -124 14 -9 12 -7 65 9 243 55 611 76 969 66 1135 l-7 107 108
4 c189 7 372 1 389 -13z m700 10 c7 -12 -178 -12 -245 -1 -33 6 -8 9 97 10 85
0 144 -3 148 -9z m1294 -1 c-17 -11 -206 -12 -213 -1 -2 4 48 8 112 9 72 1
110 -2 101 -8z m745 -11 c19 -31 96 -1670 80 -1696 -9 -14 -31 -17 -123 -20
-66 -2 -111 1 -111 7 0 16 50 46 117 70 77 29 106 57 101 102 l-3 34 -205 8
c-121 5 -207 13 -211 19 -4 6 -10 69 -13 142 -14 254 -46 713 -62 866 -14 139
-52 395 -70 464 l-6 26 246 0 c244 0 246 0 260 -22z m569 15 c-29 -2 -78 -2
-110 0 -32 2 -8 3 52 3 61 0 87 -1 58 -3z m536 -10 c12 -24 33 -181 156 -1148
58 -456 117 -917 130 -1022 14 -106 25 -209 25 -229 l0 -35 -384 2 -384 3 10
21 c7 15 1 104 -21 301 -17 153 -34 291 -37 307 l-6 27 109 0 c120 0 167 17
179 63 3 14 -4 114 -15 223 -62 591 -134 1455 -124 1465 13 12 191 37 275 38
64 1 79 -2 87 -16z m-2275 -328 c26 -254 55 -836 56 -1117 0 -95 7 -98 205
-98 95 0 165 -4 165 -9 0 -17 -48 -47 -109 -70 -61 -22 -101 -58 -101 -92 0
-17 -9 -19 -114 -19 -84 0 -117 4 -125 14 -8 9 -14 240 -21 797 -5 431 -9 816
-9 854 l1 70 19 -90 c10 -49 25 -157 33 -240z m1350 176 c59 -253 110 -643
160 -1210 16 -184 13 -181 130 -181 95 -1 269 -11 275 -16 13 -12 -39 -45 -88
-56 -61 -13 -111 -52 -111 -87 0 -20 -5 -21 -113 -21 -96 0 -116 3 -129 18
-12 13 -31 193 -87 822 -40 443 -74 821 -77 840 -10 70 14 5 40 -109z m-3457
-133 c-7 -309 -47 -854 -83 -1153 -5 -41 -3 -54 14 -75 20 -25 23 -25 191 -28
182 -4 194 -7 149 -49 -13 -11 -49 -35 -81 -53 -32 -18 -70 -48 -85 -66 l-27
-34 -108 0 c-136 0 -147 5 -147 71 0 27 23 260 51 517 85 794 119 1106 119
1120 0 6 3 12 7 12 3 0 3 -118 0 -262z m713 90 c0 -95 -12 -428 -26 -741 -26
-547 -26 -568 -9 -587 17 -19 31 -20 202 -20 174 0 183 -1 183 -19 0 -26 -40
-56 -108 -81 -83 -30 -102 -41 -116 -68 -13 -24 -16 -24 -122 -23 -73 1 -113
6 -122 15 -14 14 -13 32 63 1106 19 272 35 516 35 543 0 26 5 47 10 47 6 0 10
-64 10 -172z m2069 -118 c24 -182 46 -429 61 -695 30 -520 28 -507 58 -522 9
-4 104 -10 210 -13 183 -5 192 -6 180 -23 -7 -10 -45 -29 -83 -43 -69 -25
-125 -66 -125 -91 0 -23 -39 -33 -135 -33 -87 0 -98 2 -119 23 -22 22 -24 34
-30 183 -4 87 -20 438 -37 779 -16 341 -28 640 -28 665 l1 45 13 -60 c8 -33
23 -130 34 -215z m1873 -2171 l-24 -9 7 -225 c7 -200 6 -227 -9 -250 l-16 -25
-360 0 -360 0 10 26 c6 14 10 126 10 249 0 203 2 225 18 234 11 7 152 10 382
10 238 0 357 -4 342 -10z m-1598 -30 c8 -39 8 -416 0 -445 -11 -41 -39 -44
-380 -44 -258 0 -324 3 -317 13 4 6 8 115 8 240 0 228 0 229 24 248 22 18 43
19 341 19 l318 0 6 -31z m-1489 -215 c0 -214 -1 -234 -19 -253 -19 -20 -27
-21 -335 -21 l-316 0 3 237 c1 131 5 244 7 250 4 13 196 19 525 18 l135 0 0
-231z m540 -264 c38 -6 21 -7 -75 -7 -79 0 -112 2 -90 7 47 10 104 10 165 0z
m1504 6 c-2 -2 -69 -6 -149 -9 -81 -3 -136 -1 -125 3 19 8 283 14 274 6z
m-3006 -13 c-7 -2 -19 -2 -25 0 -7 3 -2 5 12 5 14 0 19 -2 13 -5z"/>
<path d="M0 400 l0 -400 5000 0 5000 0 0 400 0 400 -5000 0 -5000 0 0 -400z
m2192 123 c23 -20 23 -57 1 -74 -15 -11 -16 -11 -5 1 27 31 11 72 -33 83 -19
4 -19 5 -1 6 11 0 28 -6 38 -16z m-69 -8 c-3 -9 -8 -14 -10 -11 -3 3 -2 9 2
15 9 16 15 13 8 -4z m-1760 -114 c22 -61 43 -108 47 -104 4 4 24 56 45 116 21
59 42 107 47 107 11 0 9 -5 -42 -149 -23 -64 -44 -107 -53 -109 -15 -3 -17 0
-67 143 -15 44 -31 88 -36 99 -5 13 -3 17 6 14 8 -2 32 -55 53 -117z m517 89
c0 -23 4 -30 20 -30 11 0 20 -4 20 -10 0 -5 -10 -10 -21 -10 -20 0 -21 -4 -17
-71 3 -55 8 -74 23 -85 23 -17 14 -29 -13 -15 -11 6 -22 25 -26 42 -10 51 -7
209 4 209 6 0 10 -13 10 -30z m515 16 c25 -11 33 -19 29 -30 -7 -19 -5 -19
-40 -1 -36 18 -55 19 -78 2 -28 -21 -9 -45 49 -62 87 -25 108 -74 54 -127 -29
-29 -33 -30 -90 -25 -68 6 -72 8 -64 29 5 13 12 14 40 5 50 -15 100 1 100 33
0 16 -8 28 -25 36 -87 40 -105 51 -108 67 -14 70 53 106 133 73z m105 -16 c0
-25 4 -30 25 -30 16 0 25 -6 25 -15 0 -9 -9 -15 -25 -15 -24 0 -25 -3 -25 -60
0 -55 2 -62 25 -72 14 -6 25 -15 25 -20 0 -18 -31 -20 -55 -4 -24 16 -25 20
-25 131 0 96 3 115 15 115 10 0 15 -10 15 -30z m482 -32 l3 -62 36 32 c20 18
45 32 55 32 14 0 9 -9 -21 -40 l-39 -40 42 -60 c40 -57 41 -60 20 -60 -16 0
-32 14 -53 45 -16 25 -33 45 -37 45 -5 0 -8 -20 -8 -45 0 -38 -3 -45 -20 -45
-19 0 -20 7 -20 130 0 122 1 130 20 130 16 0 19 -8 22 -62z m193 30 c1 -20 -2
-24 -11 -17 -8 7 -14 6 -17 -3 -3 -7 -6 2 -6 20 -1 27 3 33 17 30 11 -2 17
-13 17 -30z m-44 -35 c13 -16 12 -17 -3 -4 -17 13 -22 21 -14 21 2 0 10 -8 17
-17z m-1502 -19 c12 -15 21 -40 21 -55 0 -29 0 -29 -65 -29 -72 0 -83 -12 -44
-51 17 -17 30 -20 65 -16 43 4 59 -5 28 -17 -45 -17 -106 3 -123 41 -45 98 56
206 118 127z m191 16 c17 -11 10 -13 -40 -10 -47 2 -75 -28 -75 -80 0 -55 26
-80 82 -80 27 0 42 -4 38 -10 -9 -15 -78 -12 -102 5 -50 35 -50 135 0 170 24
17 74 20 97 5z m265 -13 c20 -16 28 -35 32 -69 5 -42 3 -50 -25 -78 -41 -41
-83 -41 -124 0 -28 28 -30 36 -25 78 9 82 84 119 142 69z m85 7 c0 -14 2 -14
22 0 24 17 38 20 38 9 0 -5 -14 -16 -30 -25 -29 -17 -30 -19 -30 -93 0 -43 -4
-75 -10 -75 -6 0 -10 40 -10 100 0 60 4 100 10 100 6 0 10 -7 10 -16z m537 1
c30 -21 44 -75 32 -120 -25 -88 -143 -88 -168 0 -20 72 20 135 84 135 17 0 40
-7 52 -15z m198 -5 c0 -10 -8 -14 -27 -12 -58 6 -91 -42 -67 -100 11 -28 36
-40 74 -35 12 1 20 -4 20 -13 0 -19 -48 -25 -85 -10 -63 26 -68 148 -6 179 31
15 91 9 91 -9z m5354 -83 c8 -26 17 -47 21 -47 4 0 13 21 21 47 8 25 20 48 26
50 8 3 4 -21 -11 -64 -13 -38 -29 -68 -36 -68 -7 0 -23 30 -36 68 -15 43 -19
67 -11 64 6 -2 18 -25 26 -50z m638 38 c2 -6 -9 -11 -23 -10 -39 0 -42 -23 -5
-36 34 -12 49 -43 31 -64 -13 -16 -38 -19 -64 -9 -27 10 -18 22 17 20 38 -1
43 19 8 37 -36 18 -48 42 -31 62 14 17 61 17 67 0z m333 -20 c0 -35 16 -47 26
-20 4 8 13 15 22 15 13 0 13 -3 -2 -19 -16 -18 -16 -21 -1 -50 19 -38 8 -40
-22 -3 l-22 27 -1 -27 c0 -16 -4 -28 -10 -28 -6 0 -10 30 -10 70 0 40 4 70 10
70 6 0 10 -16 10 -35z m580 32 c0 -4 -34 -104 -45 -136 -3 -8 -8 -11 -11 -8
-8 7 38 147 48 147 4 0 8 -2 8 -3z m100 -16 c-5 -11 -15 -23 -20 -26 -6 -4 -1
-14 12 -25 20 -15 21 -21 10 -44 -11 -26 -34 -32 -66 -20 -28 11 -17 24 14 18
22 -5 31 -2 36 11 6 16 -3 28 -31 39 -6 2 -5 9 3 17 18 19 15 29 -8 29 -11 0
-20 5 -20 10 0 6 18 10 40 10 37 0 40 -2 30 -19z m114 -3 c44 -63 -17 -154
-68 -102 -9 9 -16 32 -16 54 0 64 52 94 84 48z m120 0 c44 -63 -17 -154 -68
-102 -9 9 -16 32 -16 54 0 64 52 94 84 48z m116 3 c-5 -11 -15 -23 -21 -26 -6
-5 -2 -13 11 -22 42 -29 8 -82 -43 -69 -37 9 -34 27 3 20 22 -5 31 -2 36 11 6
16 -3 28 -31 39 -6 2 -5 9 3 17 18 19 15 29 -8 29 -11 0 -20 5 -20 10 0 6 18
10 40 10 37 0 40 -2 30 -19z m114 -3 c44 -63 -17 -154 -68 -102 -9 9 -16 32
-16 54 0 64 52 94 84 48z m116 12 c0 -5 -11 -10 -25 -10 -32 0 -32 -16 -1 -24
27 -7 41 -35 31 -65 -7 -23 -37 -35 -65 -26 -31 10 -24 23 13 21 28 -1 32 2
32 24 0 22 -4 25 -33 23 -26 -1 -32 2 -28 14 3 8 6 23 6 34 0 15 7 19 35 19
19 0 35 -4 35 -10z m80 -50 c0 -33 4 -60 10 -60 6 0 10 -4 10 -10 0 -5 -13
-10 -30 -10 -16 0 -30 5 -30 10 0 6 5 10 10 10 6 0 10 20 10 45 0 38 -2 43
-17 38 -16 -6 -16 -4 1 15 29 34 36 27 36 -38z m122 8 c2 -29 2 -61 0 -70 -5
-22 -22 -24 -22 -3 0 10 -10 15 -30 15 -16 0 -30 3 -30 6 0 16 56 104 67 104
6 0 13 -22 15 -52z m-2092 7 c9 -10 9 -15 1 -15 -15 0 -14 -57 2 -63 6 -2 9
-7 6 -11 -15 -17 -37 8 -41 47 -7 58 5 74 32 42z m360 0 c9 -10 9 -15 1 -15
-15 0 -14 -57 2 -63 6 -2 9 -7 6 -11 -15 -17 -37 8 -41 47 -7 58 5 74 32 42z
m-532 -7 c23 -23 13 -38 -24 -38 -46 0 -41 -23 7 -30 27 -4 30 -7 16 -13 -28
-11 -44 -9 -61 9 -32 31 -14 84 29 84 12 0 26 -5 33 -12z m109 5 c14 -6 10 -9
-17 -13 -29 -4 -35 -9 -35 -30 0 -21 6 -26 35 -30 27 -4 31 -7 17 -13 -10 -4
-25 -7 -32 -7 -20 0 -45 28 -45 50 0 22 25 50 45 50 7 0 22 -3 32 -7z m177 -9
c31 -30 9 -84 -34 -84 -24 0 -50 26 -50 50 0 24 26 50 50 50 10 0 26 -7 34
-16z m86 6 c0 -4 -7 -10 -15 -14 -9 -3 -15 -19 -15 -41 0 -19 -4 -35 -10 -35
-5 0 -10 22 -10 49 0 45 2 49 25 49 14 0 25 -4 25 -8z m274 -6 c21 -20 20 -43
-1 -66 -20 -22 -46 -23 -67 -2 -31 30 -9 84 34 84 10 0 26 -7 34 -16z m121 7
c3 -5 -9 -11 -27 -13 -28 -2 -33 -7 -33 -28 0 -21 5 -26 33 -28 36 -4 34 -22
-3 -22 -28 0 -55 24 -55 50 0 37 67 69 85 41z m242 2 c14 -6 10 -9 -17 -13
-29 -4 -35 -9 -35 -30 0 -21 5 -26 33 -28 36 -4 34 -22 -3 -22 -28 0 -55 24
-55 50 0 22 25 50 45 50 7 0 22 -3 32 -7z m107 -9 c31 -30 9 -84 -34 -84 -24
0 -50 26 -50 50 0 24 26 50 50 50 10 0 26 -7 34 -16z m113 4 c7 -5 14 -5 18 2
10 16 42 12 49 -6 10 -25 7 -84 -4 -84 -5 0 -10 18 -10 41 0 33 -3 40 -17 37
-13 -2 -19 -14 -21 -41 -4 -50 -22 -47 -22 4 0 36 -2 40 -22 37 -19 -2 -24
-10 -26 -40 -5 -55 -22 -46 -22 10 0 48 0 49 33 49 17 0 37 -4 44 -9z m-327
-78 c0 -5 -4 -10 -10 -10 -5 0 -10 5 -10 10 0 6 5 10 10 10 6 0 10 -4 10 -10z"/>
<path d="M2150 500 c0 -5 5 -10 10 -10 6 0 10 5 10 10 0 6 -4 10 -10 10 -5 0
-10 -4 -10 -10z"/>
<path d="M536 418 c-28 -39 -21 -48 39 -48 59 0 67 9 45 51 -15 27 -64 25 -84
-3z"/>
<path d="M986 424 c-50 -50 -21 -144 44 -144 48 0 80 50 66 104 -13 53 -75 75
-110 40z"/>
<path d="M1616 408 c-32 -46 -8 -118 39 -118 28 0 55 34 55 70 0 36 -27 70
-55 70 -13 0 -31 -10 -39 -22z"/>
<path d="M8964 365 c-9 -38 3 -75 26 -75 13 0 22 9 26 25 9 38 -3 75 -26 75
-13 0 -22 -9 -26 -25z"/>
<path d="M9084 365 c-9 -38 3 -75 26 -75 13 0 22 9 26 25 9 38 -3 75 -26 75
-13 0 -22 -9 -26 -25z"/>
<path d="M9314 365 c-9 -38 3 -75 26 -75 13 0 22 9 26 25 9 38 -3 75 -26 75
-13 0 -22 -9 -26 -25z"/>
<path d="M9647 350 c-18 -29 -18 -30 2 -30 17 0 21 6 21 30 0 17 -1 30 -3 30
-1 0 -11 -13 -20 -30z"/>
<path d="M7375 340 c-4 -6 5 -10 19 -10 14 0 26 5 26 10 0 6 -9 10 -19 10 -11
0 -23 -4 -26 -10z"/>
<path d="M7654 336 c-10 -26 4 -48 28 -44 17 2 23 10 23 28 0 18 -6 26 -23 28
-13 2 -25 -3 -28 -12z"/>
<path d="M8014 336 c-10 -26 4 -48 28 -44 17 2 23 10 23 28 0 18 -6 26 -23 28
-13 2 -25 -3 -28 -12z"/>
<path d="M8484 336 c-10 -26 4 -48 28 -44 17 2 23 10 23 28 0 18 -6 26 -23 28
-13 2 -25 -3 -28 -12z"/>
</g>
</svg>
