<?xml version="1.0" standalone="no"?>
<!DOCTYPE svg PUBLIC "-//W3C//DTD SVG 20010904//EN"
 "http://www.w3.org/TR/2001/REC-SVG-20010904/DTD/svg10.dtd">
<svg version="1.0" xmlns="http://www.w3.org/2000/svg"
 width="350.000000pt" height="350.000000pt" viewBox="0 0 350.000000 350.000000"
 preserveAspectRatio="xMidYMid meet">

<g transform="translate(0.000000,350.000000) scale(0.100000,-0.100000)"
fill="#000000" stroke="none">
<path d="M530 3105 c-25 -19 -59 -37 -77 -41 -39 -7 -48 -18 -68 -73 -8 -24
-29 -61 -46 -83 l-32 -39 52 -53 c50 -50 57 -70 23 -60 -11 4 -9 1 3 -6 28
-17 45 -41 45 -62 0 -26 -36 -23 -65 7 -14 13 -25 20 -25 15 0 -16 54 -51 74
-48 17 2 21 10 20 36 -1 19 3 32 10 32 12 0 96 -80 96 -92 0 -3 -15 -5 -32 -4
-27 1 -34 -3 -36 -21 -4 -29 39 -73 73 -73 14 0 25 4 25 9 0 4 -11 6 -24 4
-28 -6 -66 27 -66 57 0 36 63 18 80 -23 l9 -22 0 23 c1 30 11 28 52 -14 18
-19 54 -47 79 -61 41 -23 167 -150 663 -669 l139 -144 -28 -57 c-38 -78 -44
-176 -16 -255 28 -80 70 -136 203 -273 64 -66 125 -138 136 -160 12 -22 42
-105 68 -185 58 -176 93 -248 151 -310 68 -72 144 -103 270 -108 76 -3 116 0
160 13 219 64 437 259 558 502 49 97 70 176 70 264 1 67 -3 83 -33 143 -41 80
-130 180 -215 241 -77 54 -94 61 -232 90 -159 33 -189 52 -356 218 -78 80
-159 153 -178 163 -24 13 -57 19 -105 19 -60 0 -81 -5 -146 -36 l-77 -37 -396
381 c-280 268 -405 396 -426 431 -16 29 -40 62 -54 75 -32 30 -33 51 -3 52
l22 0 -22 9 c-41 17 -59 80 -23 80 30 0 63 -38 57 -66 -2 -13 0 -24 4 -24 19
0 8 52 -16 76 -35 35 -70 30 -70 -10 -1 -42 -15 -40 -54 5 -26 30 -31 43 -23
51 15 15 -12 47 -36 42 -11 -2 -32 15 -61 51 -24 30 -46 55 -50 54 -3 0 -26
-16 -51 -34z m175 -137 c70 -84 137 -164 149 -178 12 -14 32 -42 44 -62 27
-43 21 -69 -9 -42 -10 9 -19 12 -19 6 0 -6 6 -12 13 -15 8 -3 7 -10 -7 -26
-25 -27 -34 -27 -48 4 -9 21 -8 27 13 44 22 19 17 27 -14 22 -5 -1 -6 3 -3 8
3 5 -10 21 -30 36 -26 20 -33 30 -25 38 6 6 11 15 11 21 0 5 -8 1 -18 -9 -17
-18 -16 -20 18 -51 32 -31 33 -33 10 -27 -31 7 -60 31 -60 50 0 7 -4 13 -10
13 -5 0 -10 4 -10 9 0 5 8 8 18 7 11 -1 16 6 15 17 -1 12 4 17 14 13 8 -3 12
-2 9 3 -9 14 -58 20 -77 8 -14 -9 -22 -6 -38 14 -12 13 -19 32 -17 41 2 9 -1
15 -8 12 -6 -2 -11 6 -11 21 0 30 3 31 22 8 13 -16 13 -16 4 3 -10 20 -57 38
-73 28 -4 -3 -5 -18 -2 -33 4 -16 1 -32 -5 -35 -6 -4 -11 -17 -10 -29 0 -12 3
-16 6 -9 2 6 10 9 16 5 7 -4 8 0 4 11 -12 31 35 8 71 -35 19 -22 39 -36 45
-32 7 3 9 2 4 -2 -4 -5 0 -19 9 -33 12 -18 12 -22 3 -17 -8 4 -3 -2 10 -13 22
-17 23 -22 13 -52 -10 -27 -9 -31 3 -26 8 3 17 1 20 -4 4 -6 13 -10 22 -10 19
0 63 -38 63 -54 0 -6 -22 -32 -49 -58 l-48 -46 -43 24 c-23 13 -116 94 -206
180 l-163 155 34 44 c18 24 36 58 40 74 7 34 19 46 57 55 14 3 46 21 70 40 24
19 44 35 45 35 1 1 58 -68 128 -151z m-105 -49 c0 -6 -4 -7 -10 -4 -5 3 -10
11 -10 16 0 6 5 7 10 4 6 -3 10 -11 10 -16z m214 -203 l27 -14 -32 -11 c-38
-13 -59 -1 -38 23 17 19 12 18 43 2z m126 -53 c0 -14 -170 -176 -177 -170 -3
4 -1 7 5 7 7 0 12 5 12 11 0 16 122 139 138 139 7 0 10 5 7 10 -3 6 -1 10 4
10 6 0 11 -3 11 -7z m55 -48 c16 -13 26 -27 22 -31 -4 -4 -22 6 -40 22 l-32
29 29 -32 c29 -32 29 -33 11 -53 -24 -26 -37 -25 -65 5 l-24 25 29 30 c16 17
31 30 34 30 3 -1 19 -12 36 -25z m98 -107 c-3 -6 -22 5 -42 24 l-36 33 33 -36
32 -35 -25 -24 -26 -24 -31 32 -32 32 34 35 34 35 33 -32 c18 -17 30 -35 26
-40z m-176 40 c13 -12 23 -26 23 -32 0 -10 -90 -96 -101 -96 -3 0 -16 11 -29
25 l-24 26 26 26 c24 23 29 25 45 12 16 -13 17 -13 4 4 -12 15 -11 20 4 37 22
25 24 25 52 -2z m78 -78 l29 -31 -53 -51 -53 -51 -31 32 -31 31 49 50 c27 27
52 50 55 50 4 0 19 -14 35 -30z m148 2 l27 -28 -35 -34 -35 -34 -25 24 c-14
13 -25 28 -25 34 0 11 50 64 61 65 3 1 17 -12 32 -27z m-94 -79 c-18 -21 4
-41 26 -23 12 10 15 10 15 -1 0 -17 -73 -89 -89 -89 -7 0 -9 -4 -6 -10 15 -24
-16 -7 -38 22 l-25 31 51 53 c39 41 54 51 64 42 10 -8 11 -14 2 -25z m163 10
c29 -27 38 -50 16 -37 -7 4 -10 3 -5 -1 4 -5 -5 -21 -20 -37 l-27 -28 -25 23
-26 22 22 -25 22 -25 -54 -55 -55 -54 -30 29 c-40 38 -29 47 13 9 l32 -29 -29
32 -30 33 80 84 c43 46 81 84 83 85 3 0 18 -11 33 -26z m-142 -23 c0 -5 -4
-10 -10 -10 -5 0 -10 5 -10 10 0 6 5 10 10 10 6 0 10 -4 10 -10z m230 -55 c7
-8 10 -18 6 -22 -7 -7 -56 36 -56 49 0 11 33 -6 50 -27z m-33 -7 c13 -12 23
-26 23 -32 0 -6 -36 -46 -81 -90 l-80 -79 -30 28 c-36 35 -29 47 9 14 l27 -24
-24 27 -24 28 74 75 c41 41 76 75 78 75 3 0 15 -10 28 -22z m91 -51 c12 -13
19 -27 15 -30 -7 -8 -53 31 -53 45 0 15 16 8 38 -15z m-20 -20 l22 -23 -55
-54 c-49 -48 -56 -52 -72 -39 -17 13 -17 13 -4 -4 13 -16 11 -21 -12 -45 l-26
-26 -25 23 -24 23 25 29 c14 16 31 26 37 22 6 -3 8 -2 3 2 -7 8 89 115 103
115 4 0 16 -10 28 -23z m75 -35 c10 -10 14 -22 10 -25 -7 -8 -43 21 -43 35 0
14 16 9 33 -10z m-20 -20 c16 -17 15 -20 -18 -52 -29 -28 -37 -31 -49 -20 -13
10 -17 9 -23 -6 -4 -10 -2 -19 5 -22 17 -5 15 -22 -4 -22 -8 0 -13 -4 -10 -9
3 -4 -9 -21 -26 -36 l-31 -28 -17 24 c-18 23 -18 23 64 106 44 46 84 83 87 83
3 0 13 -8 22 -18z m73 -33 l23 -22 -64 -65 c-64 -65 -64 -66 -85 -47 -11 10
-19 22 -18 26 4 10 112 129 117 129 3 0 15 -10 27 -21z m-141 -49 c3 -5 1 -10
-4 -10 -6 0 -11 5 -11 10 0 6 2 10 4 10 3 0 8 -4 11 -10z m199 -5 c18 -13 15
-18 -47 -82 -66 -67 -66 -67 -87 -48 l-21 19 63 63 c35 34 65 62 68 62 3 0 14
-6 24 -14z m54 -47 c14 -14 16 -42 2 -33 -5 3 -10 0 -10 -8 0 -7 -15 -27 -33
-44 -29 -26 -35 -28 -43 -15 -6 9 -16 12 -22 8 -18 -11 -15 -36 4 -36 14 0 14
-3 4 -15 -12 -14 -16 -13 -37 7 l-23 22 62 63 c66 65 76 71 96 51z m-243 -38
c18 -20 18 -21 -3 -43 l-22 -21 -22 21 c-21 22 -21 23 -3 43 10 11 21 20 25
20 4 0 15 -9 25 -20z m300 -20 c10 -11 15 -23 12 -27 -8 -7 -47 25 -47 39 0
14 16 9 35 -12z m-20 -20 c18 -20 18 -21 -5 -45 -13 -14 -30 -23 -37 -21 -7 3
-10 0 -7 -7 2 -7 -7 -24 -21 -37 l-25 -24 -22 22 -22 22 24 25 c13 14 30 23
38 20 7 -3 10 0 6 6 -6 10 32 59 46 59 4 0 15 -9 25 -20z m-330 -10 c10 -11
14 -20 8 -20 -5 0 -18 9 -28 20 -10 11 -14 20 -8 20 5 0 18 -9 28 -20z m98
-42 c-22 -22 -22 -22 -45 -2 l-23 19 19 -23 c24 -28 16 -39 -9 -12 -18 20 -18
21 10 50 l29 30 20 -20 20 -20 -21 -22z m643 52 c49 -19 12 -33 -88 -34 -78
-1 -99 -5 -132 -24 -25 -15 -42 -20 -49 -13 -6 6 6 17 34 32 90 46 177 61 235
39z m-332 -52 c-3 -5 -16 -1 -27 9 -22 17 -22 17 -5 -2 17 -18 17 -20 -9 -47
-25 -27 -27 -27 -47 -11 -20 17 -21 17 -4 -2 17 -18 17 -20 -9 -47 -25 -26
-28 -27 -45 -11 -18 16 -16 19 49 85 63 63 68 66 85 51 10 -8 15 -20 12 -25z
m-204 22 c0 -5 -4 -10 -10 -10 -5 0 -10 5 -10 10 0 6 5 10 10 10 6 0 10 -4 10
-10z m-60 -84 l-30 -31 -22 23 -22 22 29 30 29 30 23 -22 24 -22 -31 -30z
m705 38 c22 -20 31 -32 20 -27 -11 4 -72 8 -135 9 -91 1 -124 -3 -159 -18 -33
-14 -47 -15 -57 -7 -23 19 -16 29 31 50 33 15 57 18 92 14 27 -3 68 -2 93 3
69 15 72 14 115 -24z m-381 -23 c42 -42 41 -55 -6 -98 l-24 -23 -44 45 -44 45
27 27 27 27 42 -39 43 -40 -37 40 c-21 23 -38 44 -38 48 0 16 18 5 54 -32z
m-259 -22 c19 -20 18 -21 -10 -48 l-30 -29 -22 20 -21 20 25 29 c31 35 34 35
58 8z m645 -4 c60 -31 65 -81 17 -151 l-34 -49 -82 2 c-51 1 -88 6 -99 14 -15
12 -16 12 -5 -2 11 -13 10 -19 -5 -32 -36 -32 -58 -25 -121 37 -57 57 -59 60
-46 85 33 64 88 94 185 102 132 10 160 9 190 -6z m-460 -61 l45 -45 -29 -26
-29 -25 -46 46 -45 45 24 26 c13 14 26 25 30 25 3 0 26 -21 50 -46z m-137 -17
c-28 -30 -49 -38 -62 -23 -9 11 -6 21 15 45 25 30 27 31 45 15 18 -16 18 -18
2 -37z m685 17 c-4 -3 -12 5 -18 18 -12 22 -12 22 6 6 10 -10 15 -20 12 -24z
m-610 -57 l42 -43 -22 -21 c-42 -37 -48 -37 -89 3 -56 55 -48 67 8 14 46 -43
46 -43 10 -5 -20 23 -37 45 -37 50 0 10 30 45 39 45 4 0 26 -19 49 -43z m711
-29 c55 -52 68 -70 77 -111 8 -33 22 -58 43 -77 17 -16 31 -36 31 -44 0 -29
-50 -44 -123 -39 -63 5 -67 7 -67 30 0 13 -12 36 -27 51 -15 15 -26 35 -24 46
4 27 -37 66 -71 66 -34 0 -35 7 -4 49 13 18 30 46 36 62 20 47 52 39 129 -33z
m-609 -3 c0 -8 -7 -15 -16 -15 -14 0 -14 3 -4 15 7 8 14 15 16 15 2 0 4 -7 4
-15z m138 -119 c-11 -20 -12 -19 -26 10 -7 17 -32 41 -53 55 -36 22 -49 46
-32 63 4 3 33 -19 64 -50 51 -50 57 -60 47 -78z m-319 80 c14 -17 -8 -162 -38
-245 l-19 -54 -11 39 c-19 70 -14 151 15 215 28 62 34 68 53 45z m226 -34 c55
-39 63 -56 41 -92 -9 -16 -16 -37 -16 -48 0 -27 -26 -35 -60 -17 -16 8 -37 15
-47 15 -32 0 -43 15 -50 65 -6 44 -5 48 12 41 15 -5 16 -4 5 9 -10 12 -10 18
1 33 31 39 52 38 114 -6z m233 6 c9 -9 17 -9 36 1 24 13 66 7 66 -10 0 -5 17
-9 38 -9 53 0 82 -23 82 -65 0 -25 5 -35 19 -40 20 -6 37 -39 32 -63 -1 -8 5
-23 15 -33 17 -19 16 -19 -15 -8 -18 6 -30 16 -28 23 3 6 8 18 12 27 8 22 -20
49 -51 49 -21 0 -24 4 -24 40 0 47 -17 59 -57 41 -22 -10 -28 -10 -35 3 -12
21 -64 21 -76 0 -8 -15 -10 -15 -15 0 -5 12 -3 15 6 10 6 -4 8 -3 4 1 -17 19
-56 15 -71 -6 -8 -12 -21 -19 -29 -16 -17 6 -43 -35 -33 -52 5 -7 -2 -11 -17
-11 -26 0 -40 -20 -31 -44 3 -7 -2 -16 -10 -19 -12 -5 -13 1 -9 31 6 41 21 65
34 57 4 -3 13 5 20 17 16 30 35 48 42 41 4 -3 20 6 37 21 36 29 41 31 58 14z
m-381 -80 c2 -66 0 -74 -28 -105 -25 -29 -29 -42 -29 -89 0 -49 4 -59 32 -87
20 -20 31 -40 29 -52 -4 -25 -7 -29 -21 -20 -8 5 -8 10 1 21 9 11 4 18 -25 35
-66 39 -81 99 -46 178 11 24 21 60 21 80 2 62 13 96 31 96 9 0 20 4 24 8 4 4
8 7 8 7 1 0 2 -32 3 -72z m885 20 c76 -82 89 -132 39 -151 -35 -13 -43 -42
-31 -107 17 -85 12 -144 -12 -168 l-23 -21 -2 120 c-1 87 -5 126 -16 142 -14
22 -13 24 14 39 40 24 39 60 -5 101 -40 37 -58 97 -30 97 9 0 39 -24 66 -52z
m-517 1 c7 -20 -7 -38 -28 -39 -14 0 -19 30 -7 45 17 21 27 19 35 -6z m89 5
c9 -23 9 -23 -25 -22 -20 1 -26 4 -17 9 7 5 9 9 3 9 -10 0 15 20 26 20 4 0 10
-7 13 -16z m574 -10 c78 -17 131 -44 208 -105 105 -83 189 -212 201 -306 9
-77 -21 -191 -79 -302 -108 -210 -285 -379 -475 -456 -62 -26 -188 -49 -204
-39 -5 3 -34 7 -64 8 -113 6 -218 81 -278 201 -23 48 -107 293 -107 315 0 5
10 10 23 10 12 0 39 8 60 19 32 16 38 17 49 4 30 -37 114 -59 168 -43 18 5 50
25 69 44 25 23 41 32 54 27 15 -6 13 -11 -18 -41 -19 -19 -35 -39 -35 -45 0
-6 32 -42 70 -80 l70 -70 170 170 c94 93 169 173 168 177 -7 18 -142 147 -149
142 -5 -3 -9 14 -9 38 0 24 -5 61 -10 83 -12 50 -6 69 25 83 47 22 45 88 -5
146 -17 18 -30 36 -30 40 0 6 32 1 128 -20z m-478 -18 c0 -34 -11 -38 -40 -15
-21 16 -23 20 -10 29 28 18 50 12 50 -14z m-241 -15 c11 -20 5 -31 -15 -31
-14 0 -27 28 -18 41 9 14 23 10 33 -10z m181 -43 c40 -38 41 -39 10 -5 -42 46
-17 53 29 6 40 -40 57 -100 42 -151 -16 -51 -59 -101 -83 -95 -10 3 -16 1 -13
-4 9 -14 -41 -22 -89 -15 -35 6 -53 16 -80 47 -35 38 -48 67 -23 53 6 -4 4 2
-6 14 -14 16 -17 29 -12 54 9 40 51 108 67 108 7 0 35 -21 63 -47 l50 -48 -47
50 c-53 56 -56 62 -30 68 52 14 77 6 122 -35z m-214 -10 c1 -2 -4 -12 -12 -23
-15 -20 -16 -20 -29 -1 -8 10 -12 23 -9 27 4 7 42 4 50 -3z m340 -13 c4 -8 0
-22 -7 -31 -11 -14 -14 -13 -25 8 -8 13 -13 26 -14 31 0 14 41 7 46 -8z m-511
-22 c36 -17 37 -19 39 -100 1 -37 -2 -43 -19 -43 -11 0 -41 -11 -67 -25 l-46
-25 -26 31 c-36 42 -36 106 0 148 30 36 64 40 119 14z m143 -39 c4 -29 -26
-39 -50 -18 -26 24 -13 31 14 8 23 -19 23 -19 6 2 -24 28 -23 36 5 32 13 -2
23 -11 25 -24z m557 -19 c22 -21 25 -33 25 -93 0 -38 3 -85 6 -103 6 -33 5
-32 -70 42 -74 72 -77 76 -65 102 9 21 9 33 1 52 -11 25 -11 25 34 25 34 0 51
-6 69 -25z m-147 -15 c3 -20 -37 -45 -50 -32 -6 6 -7 20 -3 32 8 24 48 25 53
0z m-474 -37 c-2 -21 -4 -47 -6 -57 -2 -15 5 -22 34 -29 35 -8 36 -10 26 -33
-9 -20 -8 -28 5 -42 14 -13 22 -14 45 -6 27 10 30 9 39 -17 12 -31 48 -40 71
-17 9 9 16 7 32 -10 24 -25 25 -26 51 -12 11 6 19 21 19 35 0 28 6 30 46 15
38 -15 67 11 53 47 -12 32 -11 36 4 30 7 -3 24 3 38 14 21 16 22 21 12 38 -17
27 -16 31 2 31 8 0 19 15 24 33 9 31 9 31 10 5 1 -15 -4 -30 -9 -33 -6 -4 -8
-21 -4 -41 7 -38 -10 -68 -33 -60 -11 5 -12 -2 -8 -27 5 -24 2 -37 -12 -49
-17 -16 -58 -18 -80 -5 -5 3 -20 -7 -33 -24 -25 -29 -57 -38 -76 -19 -7 7 -23
5 -49 -6 -39 -16 -39 -16 -60 10 -15 18 -30 26 -53 26 -36 0 -68 36 -58 67 4
13 -3 22 -27 33 -23 11 -31 21 -29 35 2 11 4 31 3 45 -1 37 8 72 18 66 5 -3 7
-23 5 -43z m66 2 c0 -9 -9 -15 -25 -15 -24 0 -32 10 -18 23 12 13 43 7 43 -8z
m374 -40 c24 -18 12 -35 -24 -35 -28 0 -29 1 -18 25 13 29 16 30 42 10z m-359
-15 c0 -18 -43 -26 -59 -10 -8 8 -7 13 4 20 21 14 55 8 55 -10z m560 -167
c-16 -38 -45 -66 -88 -84 -27 -11 -31 -9 -78 37 -42 42 -47 50 -34 60 8 6 20
27 27 45 6 19 19 45 30 58 10 13 18 31 18 40 0 9 28 -13 69 -53 l70 -69 -14
-34z m-690 139 c3 -11 16 -24 29 -30 16 -7 26 -22 31 -48 8 -43 28 -63 66 -64
16 0 41 -13 59 -30 29 -27 32 -33 22 -55 -16 -35 -71 -59 -114 -51 -25 4 -56
29 -121 94 -81 81 -88 92 -85 123 5 55 98 105 113 61z m177 -19 c17 -15 17
-17 2 -35 -22 -23 -64 -24 -64 -1 0 15 27 53 38 53 3 0 14 -7 24 -17z m261
-21 c19 -20 13 -32 -13 -32 -22 0 -44 25 -35 40 10 15 30 12 48 -8z m-169 -22
c8 -8 -27 -50 -43 -50 -13 0 -22 30 -15 52 4 14 11 17 27 12 12 -3 26 -10 31
-14z m86 -9 c0 -29 -48 -70 -51 -43 0 4 -3 19 -5 35 -4 24 -2 27 26 27 23 0
30 -4 30 -19z m450 -14 c0 -1 -28 -29 -62 -62 l-63 -60 60 63 c55 58 65 67 65
59z m30 -24 c0 -15 -316 -323 -323 -316 -7 7 301 323 316 323 4 0 7 -3 7 -7z
m-398 -63 c26 -38 27 -40 11 -72 -26 -53 -59 -78 -102 -78 -68 0 -123 67 -102
123 11 28 30 34 61 17 13 -7 27 -6 44 2 22 9 30 8 48 -8 l23 -19 -19 22 c-17
21 -17 53 1 53 4 -1 20 -18 35 -40z m456 7 l32 -33 -130 -129 -130 -129 -35
34 -35 34 30 30 30 30 37 -34 38 -35 -35 38 -34 37 32 32 32 32 37 -34 38 -35
-35 38 -34 37 59 60 c33 33 62 60 65 60 3 0 20 -15 38 -33z m-378 -22 c45 -46
42 -57 -10 -30 -27 14 -60 51 -60 67 0 20 30 4 70 -37z m160 -28 c0 -2 -15
-16 -32 -33 l-33 -29 29 33 c28 30 36 37 36 29z m-122 -34 c34 -6 37 -19 9
-37 -10 -7 -25 -7 -43 -1 -24 9 -31 5 -69 -32 -39 -40 -46 -43 -96 -43 -60 0
-113 25 -124 59 -7 24 -25 28 -25 5 0 -8 -16 -22 -35 -30 -39 -16 -95 -19 -95
-5 0 5 -3 16 -6 25 -5 12 1 14 29 9 26 -4 49 1 83 18 39 18 49 20 53 8 2 -8
17 -26 33 -40 36 -35 93 -42 133 -18 38 23 75 64 75 85 0 12 6 15 23 10 12 -4
37 -9 55 -13z m52 -36 c0 -1 -28 -29 -62 -62 l-63 -60 60 63 c55 58 65 67 65
59z m27 -204 l-27 -27 -35 34 -35 34 27 28 27 28 35 -35 36 -35 -28 -27z"/>
<path d="M505 2990 c3 -5 11 -10 16 -10 6 0 7 5 4 10 -3 6 -11 10 -16 10 -6 0
-7 -4 -4 -10z"/>
<path d="M466 2885 c4 -8 1 -15 -5 -15 -16 0 -14 -26 4 -43 8 -9 24 -13 36
-10 16 5 20 3 14 -6 -4 -7 -18 -11 -31 -8 -13 2 -21 0 -17 -6 3 -5 20 -7 38
-4 18 3 38 0 46 -6 11 -10 11 -9 0 5 -7 9 -9 23 -5 29 4 8 3 9 -4 5 -10 -6
-17 10 -14 35 1 3 -10 4 -23 1 -20 -3 -25 0 -25 17 0 11 -4 21 -10 21 -5 0 -7
-7 -4 -15z m54 -45 c0 -5 -2 -10 -4 -10 -3 0 -8 5 -11 10 -3 6 -1 10 4 10 6 0
11 -4 11 -10z"/>
<path d="M580 2850 c0 -5 5 -10 11 -10 5 0 7 5 4 10 -3 6 -8 10 -11 10 -2 0
-4 -4 -4 -10z"/>
<path d="M606 2737 c5 -14 1 -17 -17 -15 -20 3 -24 -1 -21 -22 4 -41 10 -50
36 -50 33 0 42 17 20 41 -18 20 -6 27 14 7 7 -7 12 -8 12 -2 0 6 -11 21 -26
35 -18 17 -23 19 -18 6z m24 -68 c0 -5 -11 -9 -25 -9 -14 0 -25 4 -25 9 0 5
11 9 25 9 14 0 25 -4 25 -9z"/>
<path d="M660 2694 c0 -4 20 -27 45 -50 48 -46 86 -55 77 -20 -5 19 -6 19 -12
1 -6 -17 -13 -13 -58 29 -29 27 -52 45 -52 40z"/>
<path d="M650 2646 c0 -2 8 -10 18 -17 15 -13 16 -12 3 4 -13 16 -21 21 -21
13z"/>
<path d="M700 2586 c0 -2 8 -10 18 -17 15 -13 16 -12 3 4 -13 16 -21 21 -21
13z"/>
<path d="M820 2455 c13 -14 26 -25 28 -25 3 0 -5 11 -18 25 -13 14 -26 25 -28
25 -3 0 5 -11 18 -25z"/>
<path d="M1237 2303 c-3 -5 -2 -15 2 -22 7 -10 10 -10 16 -1 4 6 3 16 -3 22
-5 5 -12 6 -15 1z"/>
<path d="M1130 2185 c0 -9 5 -15 11 -13 6 2 11 8 11 13 0 5 -5 11 -11 13 -6 2
-11 -4 -11 -13z"/>
<path d="M1370 1886 c0 -2 8 -10 18 -17 15 -13 16 -12 3 4 -13 16 -21 21 -21
13z"/>
<path d="M2740 1396 c0 -28 14 -35 23 -12 3 8 -1 20 -9 26 -12 10 -14 8 -14
-14z"/>
<path d="M2580 1349 c0 -3 7 -12 15 -19 9 -8 15 -8 15 -2 0 6 8 12 18 14 10 3
4 6 -15 9 -18 3 -33 2 -33 -2z"/>
<path d="M2751 1334 c0 -11 3 -14 6 -6 3 7 2 16 -1 19 -3 4 -6 -2 -5 -13z"/>
<path d="M2899 1298 c4 -34 6 -37 9 -15 4 30 11 33 32 15 8 -7 4 -1 -9 15 -14
15 -27 27 -31 27 -3 0 -3 -19 -1 -42z"/>
<path d="M2789 1257 c7 -9 10 -17 5 -17 -5 0 -2 -5 6 -10 12 -8 10 -10 -10
-10 -18 0 -21 -3 -11 -9 10 -6 2 -15 -30 -35 -24 -14 -39 -26 -34 -26 6 0 27
11 47 25 41 28 72 35 48 11 -8 -8 -28 -22 -45 -30 -19 -10 -24 -16 -13 -16 10
0 35 16 57 35 27 25 44 33 57 29 22 -8 -12 20 -61 51 -25 15 -28 16 -16 2z"/>
<path d="M2725 1250 c28 -12 57 -12 50 0 -3 6 -21 10 -38 9 -27 0 -29 -2 -12
-9z"/>
<path d="M2701 1176 c-38 -32 -39 -34 -17 -38 18 -4 22 -1 19 13 -4 12 5 24
28 38 19 12 29 21 22 21 -6 0 -29 -15 -52 -34z"/>
<path d="M2944 1166 c16 -13 17 -16 4 -16 -9 0 -18 -7 -22 -15 -4 -13 -2 -13
14 -5 10 5 26 7 34 4 12 -4 16 0 16 15 0 12 -6 21 -14 21 -8 0 -23 3 -33 6
-16 5 -16 4 1 -10z"/>
<path d="M2841 1115 c-24 -19 -49 -35 -55 -36 -34 -2 37 -17 79 -17 46 1 47 1
15 7 -31 6 -32 8 -13 14 11 4 27 15 34 24 9 10 2 8 -21 -6 -19 -11 -42 -21
-50 -21 -18 0 45 52 74 62 20 6 21 6 1 7 -11 0 -40 -15 -64 -34z"/>
<path d="M2939 1094 c-22 -25 -22 -26 -3 -16 12 6 24 18 28 27 8 21 3 19 -25
-11z"/>
<path d="M2760 1024 c0 -8 5 -12 10 -9 6 4 8 11 5 16 -9 14 -15 11 -15 -7z"/>
<path d="M2865 970 c3 -5 8 -10 11 -10 2 0 4 5 4 10 0 6 -5 10 -11 10 -5 0 -7
-4 -4 -10z"/>
<path d="M2758 923 c7 -3 16 -2 19 1 4 3 -2 6 -13 5 -11 0 -14 -3 -6 -6z"/>
<path d="M2804 911 c4 -5 0 -12 -6 -14 -7 -3 -3 -6 9 -6 27 -1 39 15 17 23
-22 8 -26 8 -20 -3z"/>
<path d="M2001 848 c1 -18 3 -25 6 -16 4 15 8 16 26 7 21 -11 21 -10 -2 15
-14 14 -26 26 -28 26 -2 0 -2 -15 -2 -32z"/>
<path d="M2893 864 c0 -7 6 -15 14 -18 7 -3 13 1 13 8 0 8 -6 16 -13 19 -8 3
-14 -1 -14 -9z"/>
<path d="M2715 860 c-3 -5 -1 -10 4 -10 6 0 11 5 11 10 0 6 -2 10 -4 10 -3 0
-8 -4 -11 -10z"/>
<path d="M2798 803 c6 -2 18 -2 25 0 6 3 1 5 -13 5 -14 0 -19 -2 -12 -5z"/>
<path d="M2198 761 c-30 -29 -58 -88 -58 -123 0 -19 -2 -20 -10 -8 -5 8 -10
11 -10 6 0 -5 -10 -1 -22 10 -20 16 -20 15 2 -10 22 -26 23 -28 5 -23 -20 7
-20 7 -1 -8 19 -14 19 -15 -10 -16 -24 -2 -22 -3 11 -8 32 -5 41 -3 47 11 4 9
16 21 26 27 28 15 62 90 62 134 0 43 -5 44 -42 8z m29 -37 c-6 -35 -54 -110
-64 -100 -3 3 9 27 26 54 17 27 31 53 31 57 0 5 -14 -13 -31 -39 -17 -26 -33
-45 -36 -43 -7 8 18 62 39 85 31 32 42 28 35 -14z"/>
<path d="M2097 725 l6 -40 -34 30 c-30 27 -30 25 6 -15 22 -25 41 -47 43 -49
7 -12 -11 85 -19 99 -5 9 -6 -2 -2 -25z"/>
<path d="M2420 750 c0 -5 5 -10 11 -10 5 0 7 5 4 10 -3 6 -8 10 -11 10 -2 0
-4 -4 -4 -10z"/>
<path d="M1920 693 c0 -5 15 -22 32 -39 27 -24 29 -24 10 -3 l-22 26 36 1 c44
2 60 12 18 12 -16 0 -39 3 -51 6 -13 4 -23 2 -23 -3z"/>
<path d="M2545 690 c-3 -5 -1 -10 4 -10 6 0 11 5 11 10 0 6 -2 10 -4 10 -3 0
-8 -4 -11 -10z"/>
<path d="M2282 640 c-12 -19 -33 -50 -47 -69 -17 -23 -25 -47 -25 -75 l-1 -41
-15 28 c-16 30 -27 37 -17 11 5 -15 3 -14 -21 1 -15 10 -29 16 -31 13 -2 -2
12 -12 31 -23 25 -13 34 -24 31 -36 -9 -32 36 -17 81 27 27 27 42 50 41 65 -1
20 -2 19 -10 -8 -8 -28 -50 -73 -69 -73 -4 0 -7 17 -8 39 -1 30 6 48 34 85 41
51 49 56 41 25 -4 -15 -3 -19 4 -12 6 6 9 26 7 44 l-3 34 -23 -35z"/>
<path d="M2501 613 c-8 -9 -10 -18 -4 -24 13 -13 35 12 25 28 -5 7 -11 6 -21
-4z"/>
<path d="M2597 615 c-4 -8 -2 -17 3 -20 6 -4 10 3 10 14 0 25 -6 27 -13 6z"/>
<path d="M2255 538 c-16 -24 -22 -38 -14 -31 15 12 53 73 46 73 -2 0 -17 -19
-32 -42z"/>
<path d="M2150 555 c0 -5 5 -17 10 -25 5 -8 10 -10 10 -5 0 6 -5 17 -10 25 -5
8 -10 11 -10 5z"/>
<path d="M2435 540 c3 -5 8 -10 11 -10 2 0 4 5 4 10 0 6 -5 10 -11 10 -5 0 -7
-4 -4 -10z"/>
<path d="M2000 522 c0 -5 12 -19 28 -33 15 -13 21 -17 15 -9 -19 21 -16 38 10
43 13 3 8 5 -15 6 -21 0 -38 -3 -38 -7z"/>
<path d="M2530 521 c0 -3 4 -12 9 -20 11 -16 32 -6 25 13 -5 12 -34 19 -34 7z"/>
<path d="M2088 513 c7 -3 16 -2 19 1 4 3 -2 6 -13 5 -11 0 -14 -3 -6 -6z"/>
<path d="M2158 453 c7 -3 16 -2 19 1 4 3 -2 6 -13 5 -11 0 -14 -3 -6 -6z"/>
<path d="M2138 423 c6 -2 18 -2 25 0 6 3 1 5 -13 5 -14 0 -19 -2 -12 -5z"/>
<path d="M2070 1406 c0 -2 8 -10 18 -17 15 -13 16 -12 3 4 -13 16 -21 21 -21
13z"/>
<path d="M703 3093 c-7 -2 -13 -14 -12 -26 0 -22 0 -22 9 1 12 29 26 28 61 -7
16 -16 29 -26 29 -21 0 10 -58 60 -68 59 -4 0 -13 -3 -19 -6z"/>
<path d="M765 3000 c-16 -7 -17 -9 -3 -9 9 -1 20 4 23 9 7 11 7 11 -20 0z"/>
<path d="M336 2744 c-5 -14 -4 -15 9 -4 17 14 19 20 6 20 -5 0 -12 -7 -15 -16z"/>
</g>
</svg>
